<svg width="24" height="24" viewBox="0 0 24 24" fill="none" xmlns="http://www.w3.org/2000/svg">
<path fill-rule="evenodd" clip-rule="evenodd" d="M2.8635 4.41326C3.05256 3.01944 4.24532 2 5.63943 2H18.3606C19.7547 2 20.9474 3.01944 21.1365 4.41326C21.3942 6.31335 21.782 9.40728 21.9113 11.7073C22.0386 13.9721 22.0033 17.0336 21.9618 18.9421C21.9307 20.3715 20.8258 21.5372 19.4005 21.6454C17.4623 21.7927 14.325 22 12 22C9.67497 22 6.53767 21.7927 4.59951 21.6454C3.17421 21.5372 2.06926 20.3715 2.03817 18.9421C1.99666 17.0336 1.9614 13.9721 2.0887 11.7073C2.21799 9.40728 2.60578 6.31335 2.8635 4.41326ZM5.63943 3.53846C5.00257 3.53846 4.47193 4.00132 4.388 4.62004C4.1304 6.51925 3.7503 9.56 3.62474 11.7937C3.50113 13.9928 3.53478 17.0013 3.57626 18.9086C3.59013 19.5462 4.07974 20.0631 4.71605 20.1114C6.65325 20.2586 9.73901 20.4615 12 20.4615C14.261 20.4615 17.3467 20.2586 19.284 20.1114C19.9203 20.0631 20.4099 19.5462 20.4237 18.9086C20.4652 17.0013 20.4989 13.9928 20.3753 11.7937C20.2497 9.56 19.8696 6.51925 19.612 4.62004C19.5281 4.00132 18.9974 3.53846 18.3606 3.53846H5.63943Z" fill="#030D45"/>
<path fill-rule="evenodd" clip-rule="evenodd" d="M7.89744 6.10256C8.32227 6.10256 8.66667 6.44696 8.66667 6.8718C8.66667 8.71274 10.1591 10.2051 12 10.2051C13.8409 10.2051 15.3333 8.71274 15.3333 6.8718C15.3333 6.44696 15.6777 6.10256 16.1026 6.10256C16.5274 6.10256 16.8718 6.44696 16.8718 6.8718C16.8718 9.56241 14.6906 11.7436 12 11.7436C9.30938 11.7436 7.12821 9.56241 7.12821 6.8718C7.12821 6.44696 7.4726 6.10256 7.89744 6.10256Z" fill="#030D45"/>
</svg>
