<svg width="24" height="24" viewBox="0 0 24 24" fill="none" xmlns="http://www.w3.org/2000/svg">
<path d="M7.77201 2.43905L8.84801 2.09505C9.85701 1.77305 10.935 2.29405 11.367 3.31205L12.227 5.34005C12.601 6.22305 12.393 7.26205 11.713 7.90805L9.81801 9.70605C9.93501 10.7821 10.297 11.8411 10.903 12.8831C11.4785 13.8912 12.2504 14.7736 13.173 15.4781L15.449 14.7181C16.311 14.4311 17.251 14.7621 17.779 15.5391L19.012 17.3491C19.627 18.2531 19.516 19.4991 18.753 20.2651L17.936 21.0861C17.122 21.9031 15.959 22.2001 14.884 21.8641C12.344 21.0721 10.011 18.7211 7.88101 14.8111C5.74801 10.8951 4.99501 7.57105 5.62301 4.84305C5.88701 3.69505 6.70401 2.78005 7.77201 2.43905V2.43905Z" fill="white"/>
</svg>
