<svg width="24" height="24" viewBox="0 0 24 24" fill="none" xmlns="http://www.w3.org/2000/svg">
<path d="M21.9999 8.58532V17.0731C21.9999 18.439 20.8732 19.6097 19.4393 19.7073C17.2884 19.9024 14.3181 20 12.0647 20C9.81141 20 6.8411 19.8048 4.69019 19.7073C3.25625 19.6097 2.12958 18.439 2.12958 17.0731V8.58532L3.66594 9.36581L10.7332 13.0731C11.1429 13.2682 11.655 13.3658 12.0647 13.3658C12.4744 13.3658 12.9866 13.2682 13.3963 13.0731L20.4635 9.36581L21.9999 8.58532Z" fill="white"/>
<path d="M21.8975 6.43902C21.8975 6.63415 21.7951 6.92683 21.5902 7.02439L20.3612 7.60976L12.5769 11.7073C12.1672 11.9024 11.7575 11.9024 11.3478 11.7073L2.33446 7.02439C2.12961 6.92683 1.92476 6.73171 2.02718 6.53659C2.23203 5.36585 3.25628 4.39024 4.58779 4.29268C6.7387 4.09756 9.70901 4 11.9623 4C14.2157 4 17.2884 4.19512 19.3369 4.29268C20.6684 4.39024 21.6927 5.26829 21.8975 6.43902Z" fill="white"/>
</svg>
