<svg width="10" height="10" viewBox="0 0 10 10" fill="none" xmlns="http://www.w3.org/2000/svg">
<path d="M9.22645 3.51217L6.52842 3.10156L5.32233 0.541094C5.28939 0.47099 5.2352 0.414239 5.16825 0.379743C5.00035 0.292947 4.79633 0.365277 4.71238 0.541094L3.50629 3.10156L0.808266 3.51217C0.733882 3.5233 0.665873 3.56002 0.613804 3.61566C0.550856 3.68341 0.516168 3.77456 0.517364 3.86908C0.518559 3.9636 0.55554 4.05376 0.62018 4.11974L2.57224 6.1127L2.11105 8.92688C2.10024 8.99235 2.10716 9.05968 2.13102 9.12123C2.15489 9.18279 2.19475 9.23611 2.24608 9.27515C2.29741 9.31419 2.35817 9.33739 2.42145 9.34212C2.48473 9.34684 2.54801 9.3329 2.60412 9.30189L5.01736 7.97324L7.43059 9.30189C7.49648 9.33861 7.57299 9.35085 7.64631 9.33749C7.83121 9.30411 7.95554 9.1205 7.92366 8.92688L7.46247 6.1127L9.41453 4.11974C9.46766 4.06522 9.50273 3.994 9.51336 3.91611C9.54205 3.72137 9.41241 3.54111 9.22645 3.51217Z" fill="#019F1B"/>
</svg>
